Coordinates
version=1
nRows=16
nColumns=40
inDegrees=yes

Units are S.I. units (second, meters, Newtons, ...)
If the header above contains a line with 'inDegrees', this indicates whether rotational values are in degrees (yes) or radians (no).

endheader
time	pelvis_tilt	pelvis_list	pelvis_rotation	pelvis_tx	pelvis_ty	pelvis_tz	hip_flexion_r	hip_adduction_r	hip_rotation_r	knee_angle_r	knee_angle_r_beta	ankle_angle_r	subtalar_angle_r	mtp_angle_r	hip_flexion_l	hip_adduction_l	hip_rotation_l	knee_angle_l	knee_angle_l_beta	ankle_angle_l	subtalar_angle_l	mtp_angle_l	lumbar_extension	lumbar_bending	lumbar_rotation	arm_flex_r	arm_add_r	arm_rot_r	elbow_flex_r	pro_sup_r	wrist_flex_r	wrist_dev_r	arm_flex_l	arm_add_l	arm_rot_l	elbow_flex_l	pro_sup_l	wrist_flex_l	wrist_dev_l
      0.14000000	     19.05372351	      0.51313698	      2.61987365	     -1.09786157	      0.92700267	      0.19006823	      5.79437420	      2.45106511	     -4.91500057	     25.04951543	      0.43719652	      0.89809930	      0.00000000	      0.00000000	    -27.95640083	     -2.39612477	     -3.05534835	     50.45431134	      0.88059385	     -5.77890496	      0.00000000	      0.00000000	    -32.80035661	      0.14463859	      5.25260961	    -13.59521013	     -2.35335549	    -15.10309834	     18.65339583	     89.36465980	    -14.33559083	      8.99569758	     10.72915562	     -5.69198551	     22.41199927	     42.24295498	     88.77732747	    -17.66311227	     -6.78153795
      0.15000000	     19.59617171	      0.21269883	      2.38576273	     -1.07965382	      0.93070498	      0.19162447	      3.94928373	      2.98871382	     -4.59181191	     25.08162498	      0.43775694	      1.57488457	      0.00000000	      0.00000000	    -26.73235527	     -2.97695776	     -3.49305261	     53.40181451	      0.93203749	     -6.52135424	      0.00000000	      0.00000000	    -33.28668688	      0.12969008	      5.72021766	    -12.97874653	     -2.45276411	    -14.74006133	     19.18475505	     89.38012748	    -14.15125615	      8.84999614	     10.24398743	     -5.45360165	     21.79484770	     40.69016771	     88.67985816	    -17.77386306	     -6.46337458
      0.16000000	     19.95316942	     -0.36327944	      2.28046786	     -1.06155129	      0.93436186	      0.19321349	      2.12075552	      3.80508567	     -4.58850392	     24.63587239	      0.42997709	      1.99199461	      0.00000000	      0.00000000	    -25.19630980	     -4.00402631	     -4.24149728	     56.22835598	      0.98136994	     -6.13069421	      0.00000000	      0.00000000	    -33.54488094	      0.38861820	      6.22480012	    -12.26616458	     -2.55421679	    -14.31302146	     19.59724058	     89.37943169	    -13.95573260	      8.59335614	      9.74001774	     -5.25190174	     21.24069936	     39.08277356	     88.60647934	    -17.72766169	     -6.02555036
      0.17000000	     20.32650477	     -0.43403440	      2.04196903	     -1.04400288	      0.93835250	      0.19472815	      0.17945634	      4.07604885	     -4.26727397	     24.00995579	      0.41905278	      2.84706096	      0.00000000	      0.00000000	    -23.60331438	     -4.32230739	     -4.58968346	     58.59304559	      1.02264156	     -5.38238479	      0.00000000	      0.00000000	    -33.90687792	      0.11641632	      6.51392299	    -11.46969098	     -2.60801206	    -13.94827497	     20.21026231	     89.37966477	    -13.92499061	      8.31418194	      9.27364203	     -5.07802677	     20.63312869	     37.44443823	     88.51055694	    -17.68899230	     -5.62744713
      0.18000000	     20.49297641	     -0.65386980	      1.93598270	     -1.02656735	      0.94215106	      0.19622703	     -1.63559412	      4.48543416	     -4.27794000	     23.10270491	      0.40321827	      3.45008571	      0.00000000	      0.00000000	    -21.69716584	     -4.90960736	     -5.07121887	     60.72703641	      1.05988673	     -3.82352742	      0.00000000	      0.00000000	    -34.02013669	      0.02636743	      6.67133056	    -10.50928869	     -2.66682254	    -13.16197431	     20.53029697	     89.38257561	    -14.45122032	      7.45255524	      8.68652136	     -4.98043157	     19.74079136	     35.94150738	     88.47986813	    -16.76375811	     -4.90478352
      0.19000000	     20.64248128	     -0.61732759	      1.64553230	     -1.00937976	      0.94598443	      0.19784605	     -3.49548352	      4.61977268	     -3.92745552	     22.07016259	      0.38519700	      4.18658898	      0.00000000	      0.00000000	    -19.78469396	     -5.12382591	     -5.64093215	     62.35224718	      1.08825201	     -1.97350185	      0.00000000	      0.00000000	    -34.13874421	     -0.40233354	      6.91493292	     -9.60059687	     -2.66383817	    -12.76590624	     21.14259779	     89.38939686	    -14.67865465	      7.03604311	      8.19717323	     -4.88797073	     19.16237571	     34.30818598	     88.43967760	    -16.56139610	     -4.46112594
      0.20000000	     20.76057001	     -0.29434386	      1.31850301	     -0.99234509	      0.94982512	      0.19940892	     -5.41808214	      4.42182350	     -3.62168468	     20.82682780	      0.36349672	      4.93839072	      0.00000000	      0.00000000	    -17.83759392	     -4.96743621	     -6.13913562	     63.44064468	      1.10724813	     -0.09353859	      0.00000000	      0.00000000	    -34.23838064	     -1.11359624	      7.04342947	     -8.69812133	     -2.60585511	    -12.49477190	     21.89772933	     89.39519606	    -14.81888562	      6.67983406	      7.72051735	     -4.84276975	     18.67296665	     32.68943930	     88.30549478	    -16.48904940	     -4.07117680
      0.21000000	     20.75580891	     -0.14269737	      0.92748952	     -0.97532121	      0.95329992	      0.20109307	     -7.22257785	      4.40196560	     -3.14877025	     19.51447205	      0.34059179	      5.46276614	      0.00000000	      0.00000000	    -15.79698571	     -4.99226324	     -6.90216880	     64.13836022	      1.11942556	      2.08924933	      0.00000000	      0.00000000	    -34.15632073	     -1.69977575	      7.26374439	     -7.70878783	     -2.54736866	    -11.77252760	     22.37659469	     89.39848905	    -16.14185791	      5.34387441	      7.16791953	     -4.83877601	     17.98753084	     31.15154142	     88.40906631	    -15.38049328	     -3.31748921
      0.22000000	     20.69772186	      0.31091327	      0.60825058	     -0.95838694	      0.95655563	      0.20247119	     -9.01370161	      4.01894426	     -2.87646388	     18.11527859	      0.31617126	      6.01743019	      0.00000000	      0.00000000	    -13.72790609	     -4.64422571	     -7.49921494	     64.26281643	      1.12159773	      4.01652350	      0.00000000	      0.00000000	    -34.05907182	     -2.50861718	      7.28074065	     -6.80380021	     -2.44866541	    -11.57960447	     23.27990491	     89.40286663	    -16.27413390	      5.03215776	      6.63513226	     -4.88404285	     17.63452368	     29.65896471	     88.34373605	    -15.29302051	     -2.96310128
      0.23000000	     20.69439265	      0.73916714	      0.04453053	     -0.94135806	      0.95955713	      0.20414375	    -10.88063663	      3.62728086	     -2.24455755	     16.66776599	      0.29090740	      6.43113666	      0.00000000	      0.00000000	    -11.86563125	     -4.25950243	     -8.43692198	     63.85748171	      1.11452331	      5.76333812	      0.00000000	      0.00000000	    -33.97380614	     -3.41684949	      7.55977202	     -5.94324418	     -2.33886346	    -11.27863968	     24.17984776	     89.40065674	    -17.03099432	      4.18881396	      6.09869673	     -4.93982460	     17.29184899	     28.19303267	     88.41379347	    -14.63491743	     -2.42921889
      0.24000000	     20.44837328	      1.13881439	     -0.22979721	     -0.92426237	      0.96173378	      0.20536500	    -12.43371920	      3.26913696	     -2.19432662	     15.31697579	      0.26733166	      6.74040306	      0.00000000	      0.00000000	     -9.65796648	     -3.98203430	     -9.19791879	     63.26722753	      1.10422143	      6.99810224	      0.00000000	      0.00000000	    -33.60278954	     -4.10818683	      7.44428737	     -5.13989428	     -2.22512882	    -11.07889270	     25.41497743	     89.42275963	    -17.10544129	      3.83979081	      5.42743926	     -5.08966693	     17.11527303	     26.82309620	     88.30286043	    -14.56305844	     -2.10897916
      0.25000000	     20.26676414	      1.60465657	     -0.65728620	     -0.90721089	      0.96359608	      0.20650415	    -14.17953118	      2.81632375	     -1.56481838	     13.67974569	      0.23875660	      7.04540977	      0.00000000	      0.00000000	     -7.71021322	     -3.41661127	     -9.81740700	     62.07504380	      1.08341390	      8.36744495	      0.00000000	      0.00000000	    -33.29124125	     -4.95297388	      7.64167473	     -4.32742321	     -2.12511795	    -10.96237405	     26.42068778	     89.41004219	    -17.36500234	      3.38309040	      4.87023374	     -5.16117774	     16.97765643	     25.44843542	     88.42075231	    -14.28049998	     -1.74828361
      0.26000000	     20.34351460	      2.08966332	     -1.39257433	     -0.88994282	      0.96529942	      0.20805981	    -16.12407524	      2.22865117	     -0.83072154	     12.21274317	      0.21315258	      7.27369847	      0.00000000	      0.00000000	     -6.24262378	     -2.89569329	    -11.02861158	     60.39352046	      1.05406578	      8.98850002	      0.00000000	      0.00000000	    -33.20034013	     -5.94034617	      8.16038759	     -3.71719944	     -2.02676018	    -10.88817236	     27.80863151	     89.40623227	    -17.89331460	      2.62711893	      4.36770715	     -5.29077308	     17.14180551	     24.10589635	     88.48295298	    -13.36108345	     -1.27911304
      0.27000000	     20.08579430	      2.38436304	     -1.70204273	     -0.87272272	      0.96582712	      0.20895782	    -17.68016165	      1.92453077	     -0.46521586	     10.80219391	      0.18853385	      7.47560514	      0.00000000	      0.00000000	     -4.31857379	     -2.57105969	    -11.65728027	     58.70076728	      1.02452166	      9.58591562	      0.00000000	      0.00000000	    -32.75177969	     -6.50441815	      8.22805883	     -3.01463035	     -1.94922679	    -10.75011657	     29.19363974	     89.40685288	    -17.90090002	      2.31091322	      3.70240916	     -5.44133593	     17.25770497	     22.86653523	     88.49630032	    -13.00207870	     -0.97066788
      0.28000000	     20.07903417	      2.71089621	     -2.22981107	     -0.85539405	      0.96610040	      0.21010742	    -19.50599197	      1.49994272	      0.00314399	      9.38383003	      0.16377873	      7.70905068	      0.00000000	      0.00000000	     -2.84606881	     -2.21697760	    -12.62115749	     56.61507616	      0.98811949	      9.86223257	      0.00000000	      0.00000000	    -32.55349158	     -7.20315918	      8.69882416	     -2.51754621	     -1.89780095	    -10.79692867	     30.87681637	     89.39892850	    -17.70782964	      2.04482864	      3.20416659	     -5.60700114	     17.67293284	     21.62538694	     88.49783107	    -12.19782701	     -0.65668745
      0.29000000	     19.69653323	      2.64921592	     -2.31439988	     -0.83829543	      0.96513611	      0.21067643	    -20.70325792	      1.60349670	     -0.00315362	      8.46803046	      0.14779501	      8.07310226	      0.00000000	      0.00000000	     -0.86036810	     -2.31644061	    -13.06372083	     54.60580041	      0.95305101	     10.02586211	      0.00000000	      0.00000000	    -32.01370629	     -7.28220486	      8.64897069	     -1.80297899	     -1.89102474	    -10.45744858	     32.42200680	     89.40620839	    -17.56242984	      1.77930517	      2.41578272	     -5.78535674	     17.75406487	     20.70515725	     88.38743638	    -12.10576094	     -0.45160090
